<svg xmlns="http://www.w3.org/2000/svg" width="62.186" height="50.681" viewBox="0 0 62.186 50.681">
	<g id="눈동자" transform="translate(-126.476 -360.314)">
		<path id="패스_107" data-name="패스 107"
			d="M23.263,38.3c-2.575,3.831-6.022,4.9-8.918,4.363-2.6-1-5.242-2.668-4.508-6.749,1.872-6.609,9.61-10.806,13.569-8.3,1.98,1.253,2.455,4.152,1.472,7.314A13.418,13.418,0,0,1,23.263,38.3"
			transform="translate(122.886 348.256)" />
		<path id="패스_108" data-name="패스 108"
			d="M23.263,38.3c-2.575,3.831-6.022,4.9-8.918,4.363-2.6-1-5.242-2.668-4.508-6.749,1.872-6.609,9.61-10.806,13.569-8.3,1.98,1.253,2.455,4.152,1.472,7.314A13.418,13.418,0,0,1,23.263,38.3Z"
			transform="translate(122.886 348.256)" fill="none" stroke="#000" stroke-linecap="square"
			stroke-width="5" />
		<path id="패스_109" data-name="패스 109"
			d="M74.147,68.761C70.9,73.25,65.269,74.881,61.984,72.8a6.7,6.7,0,0,1-1.667-6.251c1.324-3.708,4.037-7.188,7.988-8.585s7.236.682,7.719,4.983a8.527,8.527,0,0,1-1.876,5.811"
			transform="translate(97.702 332.932)" />
		<path id="패스_110" data-name="패스 110"
			d="M74.147,68.761C70.9,73.25,65.269,74.881,61.984,72.8a6.7,6.7,0,0,1-1.667-6.251c1.324-3.708,4.037-7.188,7.988-8.585s7.236.682,7.719,4.983A8.527,8.527,0,0,1,74.147,68.761Z"
			transform="translate(97.702 332.932)" fill="none" stroke="#000" stroke-linecap="square"
			stroke-width="5" />
	</g>
</svg>