<svg xmlns="http://www.w3.org/2000/svg" width="62.186" height="50.681" viewBox="0 0 62.186 50.681">
  <g id="눈알" transform="translate(-126.476 -360.314)">
    <path id="패스_103" data-name="패스 103" d="M81.986,56.987c-4.64,5.409-12.993,8.39-19.614,6.474a13.486,13.486,0,0,1-4.586-2.347,12.848,12.848,0,0,1-5.192-10.857c.739-7.326,6.239-12.938,12.716-15.112a16.029,16.029,0,0,1,5.639-.552A14.834,14.834,0,0,1,84.023,53.509a13.752,13.752,0,0,1-2.037,3.478" transform="translate(101.457 344.426)" fill="#fff"/>
    <path id="패스_104" data-name="패스 104" d="M81.986,56.987c-4.64,5.409-12.993,8.39-19.614,6.474a13.486,13.486,0,0,1-4.586-2.347,12.848,12.848,0,0,1-5.192-10.857c.739-7.326,6.239-12.938,12.716-15.112a16.029,16.029,0,0,1,5.639-.552A14.834,14.834,0,0,1,84.023,53.509,13.752,13.752,0,0,1,81.986,56.987Z" transform="translate(101.457 344.426)" fill="none" stroke="#000" stroke-linecap="square" stroke-width="5"/>
    <path id="패스_105" data-name="패스 105" d="M29.929,26.988c-2.633,2.539-4.394,5.321-8.18,6.173-8.5,1.116-18.069-4.289-19.185-12.789C1.524,8.673,13.328-.744,24.241,3.563c7.837,3.01,10.174,11.634,7.781,19.291a19.62,19.62,0,0,1-2.093,4.134" transform="translate(126.491 360.443)" fill="#fff"/>
    <path id="패스_106" data-name="패스 106" d="M29.929,26.988c-2.633,2.539-4.394,5.321-8.18,6.173-8.5,1.116-18.069-4.289-19.185-12.789C1.524,8.673,13.328-.744,24.241,3.563c7.837,3.01,10.174,11.634,7.781,19.291A19.62,19.62,0,0,1,29.929,26.988Z" transform="translate(126.491 360.443)" fill="none" stroke="#000" stroke-linecap="square" stroke-width="5"/>
  </g>
</svg>
