<svg xmlns="http://www.w3.org/2000/svg" xmlns:xlink="http://www.w3.org/1999/xlink" width="384.87" height="32.74" viewBox="0 0 384.87 32.74">
  <defs>
    <clipPath id="clip-path">
      <rect id="사각형_28" data-name="사각형 28" width="100%" height="100%" fill="none"/>
    </clipPath>
  </defs>
  <g id="하단그룹" transform="translate(7.695 -1618)">
    <!-- <path id="패스_65" data-name="패스 65" d="M0,0H381.435V30.24H0Z" transform="translate(-4.26 1620.5)" fill="#ff0"/> -->
    <text id="SUNNY_SIDE_UP_" data-name="SUNNY SIDE UP!" transform="translate(259.538 1638.625)" fill="#231815" font-size="10" font-family="roc-grotesk-wide, Roc Grotesk" font-weight="800" letter-spacing="-0.005em"><tspan x="0" y="0">SUNNY SIDE UP!</tspan></text>
    <text id="_7th_yh_collab." data-name="7th yh collab." transform="translate(22.801 1638.615)" fill="#231815" font-size="10" font-family="roc-grotesk-wide, Roc Grotesk" font-weight="800" letter-spacing="-0.005em"><tspan x="0" y="0">7th yh collab.</tspan></text>
    <!-- <path id="패스_64" data-name="패스 64" d="M1.26,0H386.13" transform="translate(-8.955 1620.5)" fill="none" stroke="#000" stroke-width="5"/> -->
    <g id="그룹_54" data-name="그룹 54" transform="translate(25.847 148)">
      <g id="그룹_51" data-name="그룹 51" transform="translate(155 1231.059)">
        <g id="그룹_51-2" data-name="그룹 51" transform="translate(0 252)" clip-path="url(#clip-path)">
          <path id="패스_66" data-name="패스 66" d="M6.318,8.831a3.619,3.619,0,0,1-3.581-.892,2.745,2.745,0,0,1-.917.094C.7,8.033.376,7.869.188,6.964A12.374,12.374,0,0,1,.212,2.537c.211-.787.5-.916,1.644-.916a3.207,3.207,0,0,1,.763.059A3.975,3.975,0,0,1,5.754,0,3.151,3.151,0,0,1,7.786.717c3.581-.329,5.566.434,5.519,2.055-.047.986-.786,1.48-2.677,1.456a1.737,1.737,0,0,1-.2,1.867c.822,1.715-.587,3.418-3.475,2.948a2.125,2.125,0,0,1-.635-.211m-.4-2.361A1.479,1.479,0,0,1,5.942,4.7a1.828,1.828,0,0,1-.2-.493A2.915,2.915,0,0,1,4.475,5.3a.316.316,0,0,1-.434-.141A.312.312,0,0,1,4.2,4.721a2.37,2.37,0,0,0,1.15-1.08.471.471,0,0,0-.364-.117.317.317,0,0,1-.282-.352.313.313,0,0,1,.317-.305C5.86,2.842,6.2,3.441,6.389,4.1c.235.775.881,1.069,1.526.6.693-.493.5-1.585.094-2.583A2.313,2.313,0,0,0,5.743.67,3.659,3.659,0,0,0,2.877,2.431a7.592,7.592,0,0,0-.14,4.38A2.69,2.69,0,0,0,5.731,8.244a1.566,1.566,0,0,1,.188-1.774m4,.094a3.988,3.988,0,0,1-3.534.329c-.47.658-.224,1.35.681,1.5,2.3.387,3.276-.634,2.853-1.832M9.864,4.193c-.27-.023-.575-.047-.868-.082a1.7,1.7,0,0,1-.7,1.139,1.549,1.549,0,0,1-1.926-.035c-.3.552.035,1.209.881,1.28,2.536.2,3.476-1.139,2.618-2.3M12.636,2.76c.035-1.033-1.209-1.667-4.3-1.421a4.765,4.765,0,0,1,.68,2.09c2.89.364,3.582.07,3.618-.669" transform="translate(0 0)"/>
        </g>
      </g>
      <g id="그룹_53" data-name="그룹 53" transform="translate(172 1231.059)">
        <g id="그룹_51-3" data-name="그룹 51" transform="translate(0 252)" clip-path="url(#clip-path)">
          <path id="패스_66-2" data-name="패스 66" d="M6.318,8.831a3.619,3.619,0,0,1-3.581-.892,2.745,2.745,0,0,1-.917.094C.7,8.033.376,7.869.188,6.964A12.374,12.374,0,0,1,.212,2.537c.211-.787.5-.916,1.644-.916a3.207,3.207,0,0,1,.763.059A3.975,3.975,0,0,1,5.754,0,3.151,3.151,0,0,1,7.786.717c3.581-.329,5.566.434,5.519,2.055-.047.986-.786,1.48-2.677,1.456a1.737,1.737,0,0,1-.2,1.867c.822,1.715-.587,3.418-3.475,2.948a2.125,2.125,0,0,1-.635-.211m-.4-2.361A1.479,1.479,0,0,1,5.942,4.7a1.828,1.828,0,0,1-.2-.493A2.915,2.915,0,0,1,4.475,5.3a.316.316,0,0,1-.434-.141A.312.312,0,0,1,4.2,4.721a2.37,2.37,0,0,0,1.15-1.08.471.471,0,0,0-.364-.117.317.317,0,0,1-.282-.352.313.313,0,0,1,.317-.305C5.86,2.842,6.2,3.441,6.389,4.1c.235.775.881,1.069,1.526.6.693-.493.5-1.585.094-2.583A2.313,2.313,0,0,0,5.743.67,3.659,3.659,0,0,0,2.877,2.431a7.592,7.592,0,0,0-.14,4.38A2.69,2.69,0,0,0,5.731,8.244a1.566,1.566,0,0,1,.188-1.774m4,.094a3.988,3.988,0,0,1-3.534.329c-.47.658-.224,1.35.681,1.5,2.3.387,3.276-.634,2.853-1.832M9.864,4.193c-.27-.023-.575-.047-.868-.082a1.7,1.7,0,0,1-.7,1.139,1.549,1.549,0,0,1-1.926-.035c-.3.552.035,1.209.881,1.28,2.536.2,3.476-1.139,2.618-2.3M12.636,2.76c.035-1.033-1.209-1.667-4.3-1.421a4.765,4.765,0,0,1,.68,2.09c2.89.364,3.582.07,3.618-.669" transform="translate(0 0)"/>
        </g>
      </g>
      <g id="그룹_52" data-name="그룹 52" transform="translate(138 1231.059)">
        <g id="그룹_51-4" data-name="그룹 51" transform="translate(0 252)" clip-path="url(#clip-path)">
          <path id="패스_66-3" data-name="패스 66" d="M6.318,8.831a3.619,3.619,0,0,1-3.581-.892,2.745,2.745,0,0,1-.917.094C.7,8.033.376,7.869.188,6.964A12.374,12.374,0,0,1,.212,2.537c.211-.787.5-.916,1.644-.916a3.207,3.207,0,0,1,.763.059A3.975,3.975,0,0,1,5.754,0,3.151,3.151,0,0,1,7.786.717c3.581-.329,5.566.434,5.519,2.055-.047.986-.786,1.48-2.677,1.456a1.737,1.737,0,0,1-.2,1.867c.822,1.715-.587,3.418-3.475,2.948a2.125,2.125,0,0,1-.635-.211m-.4-2.361A1.479,1.479,0,0,1,5.942,4.7a1.828,1.828,0,0,1-.2-.493A2.915,2.915,0,0,1,4.475,5.3a.316.316,0,0,1-.434-.141A.312.312,0,0,1,4.2,4.721a2.37,2.37,0,0,0,1.15-1.08.471.471,0,0,0-.364-.117.317.317,0,0,1-.282-.352.313.313,0,0,1,.317-.305C5.86,2.842,6.2,3.441,6.389,4.1c.235.775.881,1.069,1.526.6.693-.493.5-1.585.094-2.583A2.313,2.313,0,0,0,5.743.67,3.659,3.659,0,0,0,2.877,2.431a7.592,7.592,0,0,0-.14,4.38A2.69,2.69,0,0,0,5.731,8.244a1.566,1.566,0,0,1,.188-1.774m4,.094a3.988,3.988,0,0,1-3.534.329c-.47.658-.224,1.35.681,1.5,2.3.387,3.276-.634,2.853-1.832M9.864,4.193c-.27-.023-.575-.047-.868-.082a1.7,1.7,0,0,1-.7,1.139,1.549,1.549,0,0,1-1.926-.035c-.3.552.035,1.209.881,1.28,2.536.2,3.476-1.139,2.618-2.3M12.636,2.76c.035-1.033-1.209-1.667-4.3-1.421a4.765,4.765,0,0,1,.68,2.09c2.89.364,3.582.07,3.618-.669" transform="translate(0 0)"/>
        </g>
      </g>
      <g id="그룹_59" data-name="그룹 59" transform="translate(121 1231.059)">
        <g id="그룹_51-5" data-name="그룹 51" transform="translate(0 252)" clip-path="url(#clip-path)">
          <path id="패스_66-4" data-name="패스 66" d="M6.318,8.831a3.619,3.619,0,0,1-3.581-.892,2.745,2.745,0,0,1-.917.094C.7,8.033.376,7.869.188,6.964A12.374,12.374,0,0,1,.212,2.537c.211-.787.5-.916,1.644-.916a3.207,3.207,0,0,1,.763.059A3.975,3.975,0,0,1,5.754,0,3.151,3.151,0,0,1,7.786.717c3.581-.329,5.566.434,5.519,2.055-.047.986-.786,1.48-2.677,1.456a1.737,1.737,0,0,1-.2,1.867c.822,1.715-.587,3.418-3.475,2.948a2.125,2.125,0,0,1-.635-.211m-.4-2.361A1.479,1.479,0,0,1,5.942,4.7a1.828,1.828,0,0,1-.2-.493A2.915,2.915,0,0,1,4.475,5.3a.316.316,0,0,1-.434-.141A.312.312,0,0,1,4.2,4.721a2.37,2.37,0,0,0,1.15-1.08.471.471,0,0,0-.364-.117.317.317,0,0,1-.282-.352.313.313,0,0,1,.317-.305C5.86,2.842,6.2,3.441,6.389,4.1c.235.775.881,1.069,1.526.6.693-.493.5-1.585.094-2.583A2.313,2.313,0,0,0,5.743.67,3.659,3.659,0,0,0,2.877,2.431a7.592,7.592,0,0,0-.14,4.38A2.69,2.69,0,0,0,5.731,8.244a1.566,1.566,0,0,1,.188-1.774m4,.094a3.988,3.988,0,0,1-3.534.329c-.47.658-.224,1.35.681,1.5,2.3.387,3.276-.634,2.853-1.832M9.864,4.193c-.27-.023-.575-.047-.868-.082a1.7,1.7,0,0,1-.7,1.139,1.549,1.549,0,0,1-1.926-.035c-.3.552.035,1.209.881,1.28,2.536.2,3.476-1.139,2.618-2.3M12.636,2.76c.035-1.033-1.209-1.667-4.3-1.421a4.765,4.765,0,0,1,.68,2.09c2.89.364,3.582.07,3.618-.669" transform="translate(0 0)"/>
        </g>
      </g>
    </g>
  </g>
</svg>
