<svg xmlns="http://www.w3.org/2000/svg" xmlns:xlink="http://www.w3.org/1999/xlink" width="1065.356" height="993.293" viewBox="0 0 1065.356 993.293">
  <defs>
    <filter id="흰색배경벡터" x="0" y="0" width="1065.356" height="993.293" filterUnits="userSpaceOnUse">
      <feOffset dx="4" dy="4" input="SourceAlpha"/>
      <feGaussianBlur stdDeviation="10" result="blur"/>
      <feFlood flood-opacity="0.161"/>
      <feComposite operator="in" in2="blur"/>
      <feComposite in="SourceGraphic"/>
    </filter>
  </defs>
  <g transform="matrix(1, 0, 0, 1, 0, 0)" filter="url(#흰색배경벡터)">
    <path id="흰색배경벡터-2" data-name="흰색배경벡터" d="M496.635,15.232c-16.279,15.891-26.408,46.023-28.02,89.39a2.333,2.333,0,0,1-1.068,1.872,103.479,103.479,0,0,0-23.789,21.26,109.232,109.232,0,0,0-11.155,16.43,2.334,2.334,0,0,1-2.481,1.172A73.462,73.462,0,0,0,418.934,144c-34.391-1.46-62.122,22.234-72.365,61.839-11.089,42.885-2.283,97.42,31.021,154a2.327,2.327,0,0,1-2.42,3.474c-33.512-6.069-59.8-1.139-78.287,10.89a63.379,63.379,0,0,0-27.563,42.612c-3.512,21.151,5.991,42.292,17.238,59.665a145.694,145.694,0,0,0,41.646,42.19c2.96,1.96,5.974,3.608,8.589,6.021,5.046,4.621,6.2,10.172,7.111,16.824a84.85,84.85,0,0,0,33.91,56.973l.433.316a2.325,2.325,0,0,1-.492,4.027c-163.4,67.789-278.7,134.014-335.34,192.416a2.5,2.5,0,0,0-.279.35L5.628,851.435a2.312,2.312,0,0,0-.293.633,64.094,64.094,0,0,0-2.642,23.444c2.4,29.83,27.915,50.948,69.892,57.821,63.91,10.489,176.735-11.8,288.846-81.714l.145-.1,90.492-68.1.158-.13a663.616,663.616,0,0,0,69.8-73.076,2.325,2.325,0,0,1,4.117,1.692c-5.067,50.755,4.911,89.854,22.418,116.758l28.8,39.869a131.008,131.008,0,0,0,26.455,28.27c28.587,22.272,60.747,24.02,83.931,4.575a62.881,62.881,0,0,0,8.158-8.271,2.345,2.345,0,0,1,2.368-.8c59.055,14.454,117.811-1.707,142.976-43.6.756-1.252,1.512-2.59,2.255-4a2.267,2.267,0,0,0,.2-.544l9.9-40.833a2.246,2.246,0,0,0,.066-.534c.213-18.826-4.5-42.119-18.684-70.025q-1.263-2.475-2.628-5c-10.8-19.919-25.032-37.3-36.844-56.546-5.6-9.123-10.436-19.016-11.63-29.655-.718-6.4.181-13.533,4.79-18.038,5.639-5.511,14.629-5.249,21.823-8.477a24.177,24.177,0,0,0,13.474-25.632c-.062-.341,9.292-5.642,10.217-6.285a49.158,49.158,0,0,0,8.53-7.625,74.449,74.449,0,0,0,13.159-20.841,2.443,2.443,0,0,0,.147-.487l6.287-33.668a2.388,2.388,0,0,0,.042-.449c-.066-16.132-3.81-33.653-11.334-51.8a174.885,174.885,0,0,0-35.994-54.248,2.33,2.33,0,0,1,.2-3.427c161.759-132.067,207.409-233.6,188.692-291.676C993.55,85.886,962.26,68.029,920.869,70.888c-63.942,4.424-161.646,62.6-237.23,193.683a2.327,2.327,0,0,1-4.329-.884c-7.43-61.493-31.484-106.448-62.189-135.148a2.367,2.367,0,0,1-.657-1.1C599.567,63,574.733,21.632,546.988,7.7c-17.891-8.986-36.239-6.24-50.339,7.52Z" transform="translate(23.5 23.5)" fill="#fff"/>
  </g>
</svg>
